<svg>
  <symbol id="user" xmlns="http://www.w3.org/2000/svg" viewBox="0 0 11.566 11.566">
      <g transform="translate(0 7.436)">
        <g transform="translate(0)">
          <path d="M9.325,307.807l-1.759-.586a.413.413,0,0,0-.131-.022h-3.3a.412.412,0,0,0-.131.022l-1.759.586A3.274,3.274,0,0,0,0,310.917a.413.413,0,0,0,.413.413h10.74a.413.413,0,0,0,.413-.413A3.274,3.274,0,0,0,9.325,307.807Z" transform="translate(0 -307.199)"/>
        </g>
      </g>
      <g transform="translate(3.305)">
        <g>
          <path d="M139.012,0a2.479,2.479,0,0,0-2.479,2.479V4.131a2.479,2.479,0,0,0,4.957,0V2.479A2.479,2.479,0,0,0,139.012,0Z" transform="translate(-136.533)"/>
        </g>
      </g>
  </symbol>
  <symbol id="search" xmlns="http://www.w3.org/2000/svg" viewBox="0 0 13.871 13.872">
    <g transform="translate(12 0.064)">
      <path d="M1.618,1.615A5.525,5.525,0,0,1,9.708,9.13l1.059,1.06.7-.7,2,2A1.391,1.391,0,0,1,11.5,13.465l-2-2,.7-.7L9.133,9.705a5.525,5.525,0,0,1-7.515-8.09Zm3.906,7.7a3.8,3.8,0,1,0-3.8-3.8A3.8,3.8,0,0,0,5.525,9.319Z" transform="translate(-12.003 -0.064)"/>
    </g>
  </symbol>
  <symbol id="lang-switch-shape" xmlns="http://www.w3.org/2000/svg">
    <defs>
      <linearGradient id="linear-gradient">
        <stop offset="0" stop-color="#00a7cf"/>
        <stop offset="1" stop-color="#01627a"/>
      </linearGradient>
    </defs>
      <path d="M34.019.01A9.692,9.692,0,0,0,27.71,1.934,10.676,10.676,0,0,1,21.277,4.07H21.09a10.316,10.316,0,0,1-6.12-1.894A9.692,9.692,0,0,0,8.459.357,8.937,8.937,0,0,0,.012,8.443c-.267,4.97,4.04,9.038,9.332,8.967,2.128-.029,5.623-1.865,5.623-1.865s4.14-2.2,6.527-2.2h.188a10.717,10.717,0,0,1,6.226,1.974,9.656,9.656,0,0,0,5.752,1.769c5.29-.071,9.484-4.251,9.083-9.21C42.4,3.625,38.614.215,34.019.01Z" fill="#linear-gradient"/>
  </symbol>
  <symbol id="vk" xmlns="http://www.w3.org/2000/svg" viewBox="0 0 18.152 10.356">
    <path d="M26.821,49.168h1.085a.915.915,0,0,0,.5-.216.794.794,0,0,0,.149-.477s-.021-1.456.655-1.67,1.521,1.407,2.428,2.029a1.718,1.718,0,0,0,1.207.368l2.424-.034s1.268-.078.667-1.075a8.1,8.1,0,0,0-1.8-2.086c-1.52-1.411-1.316-1.183.515-3.623C35.757,40.9,36.2,39.99,36.064,39.6c-.133-.37-.953-.272-.953-.272l-2.729.017a.62.62,0,0,0-.352.062.765.765,0,0,0-.241.293A15.8,15.8,0,0,1,30.78,41.83c-1.215,2.064-1.7,2.173-1.9,2.045-.462-.3-.347-1.2-.347-1.84,0-2,.3-2.834-.591-3.05a4.661,4.661,0,0,0-1.274-.127,5.883,5.883,0,0,0-2.265.232c-.311.152-.55.491-.4.51a1.225,1.225,0,0,1,.806.405,2.634,2.634,0,0,1,.27,1.235s.161,2.354-.375,2.647c-.368.2-.873-.209-1.956-2.081a17.406,17.406,0,0,1-.974-2.019.811.811,0,0,0-.225-.3,1.131,1.131,0,0,0-.419-.169l-2.594.017s-.389.011-.532.18c-.127.151-.01.462-.01.462s2.031,4.751,4.33,7.145a6.228,6.228,0,0,0,4.5,2.051Z" transform="translate(-17.94 -38.855)"/>
  </symbol>
  <symbol id="fb" xmlns="http://www.w3.org/2000/svg" viewBox="0 0 8.317 18.039">
    <path d="M45.794,30.765H43.327V39.8H39.589V30.765H37.812V27.589h1.777V25.534a3.5,3.5,0,0,1,3.771-3.771l2.768.012v3.083H44.12a.761.761,0,0,0-.793.866v1.869H46.12Z" transform="translate(-37.812 -21.763)"/>
  </symbol>
	<symbol id="logo" xmlns="http://www.w3.org/2000/svg" viewBox="0 0 64 45.348">
	    <path d="M10.276,9.365l8.942.007,0,18.434A6.707,6.707,0,0,1,17.9,32.055c-.953,1.074-2.337,1.443-4.248,1.443-2.979,0-5.553-2-7.363-4.2C4.8,30.927,1.706,34.356.02,36.209a20.031,20.031,0,0,0,3.926,3.747c4.476,3.25,11.736,3.841,16.958,2.09A12.762,12.762,0,0,0,27.626,37.3a15.745,15.745,0,0,0,2.617-8.847L30.2.012,15.039,0,10.277,9.365Z"/>
	    <path d="M604.456,14.04a11.655,11.655,0,0,0,2.867,8.089c4.246,4.539,10.3,4.908,15.229,7.862,1.221.732,2.321,2.1,1.517,3.56-1.508,2.739-8.094,1.094-10.35.151a17.366,17.366,0,0,1-4.1-2.43c-.844.825-5.355,5.852-6.791,7.442,5.047,3.719,9.8,5.755,16.221,5.755,4.553,0,9.875-1.7,13.17-4.966a11.523,11.523,0,0,0,1.268-14.882c-4.3-5.655-15.792-6.8-17.629-9.809-1-1.638.531-3.841,3.373-4.034,3.332.224,4.98.708,9.127,2.9.882-.961,4.773-5.212,6.016-6.586A19.049,19.049,0,0,0,620.92,1.62c-7.578.086-15.876,4.045-16.464,12.419Z" transform="translate(-572.73 -1.539)"/>
  </symbol>
  <symbol id="clouds" xmlns="http://www.w3.org/2000/svg" viewBox="0 0 2018.215 152.001">
	    <path d="M1474.145,131H17.69a64.206,64.206,0,0,1,11.517-15.39A73.929,73.929,0,0,1,45.245,103.6,85.653,85.653,0,0,1,87,93a87.232,87.232,0,0,1,29.867,5.172,80.99,80.99,0,0,1,13,6.063,75.071,75.071,0,0,1,11.3,8.024,63.642,63.642,0,0,1,7.95-20.724A65.06,65.06,0,0,1,205,60a65.582,65.582,0,0,1,17.9,2.478,76.332,76.332,0,0,1,13.2-20.339,86.537,86.537,0,0,1,19.3-15.968A98.75,98.75,0,0,1,307,12a100.981,100.981,0,0,1,34.376,5.93A95.124,95.124,0,0,1,356.443,24.9a89.647,89.647,0,0,1,13.2,9.24,83.185,83.185,0,0,1,10.991,11.215,76.684,76.684,0,0,1,8.442,12.893,71.519,71.519,0,0,1,5.553,14.275,69.327,69.327,0,0,1,2.323,15.359A73.7,73.7,0,0,1,419.529,73.3a71.245,71.245,0,0,1,55.745.766,73.324,73.324,0,0,1,12.579,7.125,75.951,75.951,0,0,1,10.985,9.441A80.566,80.566,0,0,1,547.025,53.86a82.1,82.1,0,0,1,40.7-.578,80.618,80.618,0,0,1,45.461,29.891A80.814,80.814,0,0,1,680.5,68a82.571,82.571,0,0,1,10.468.666,79.555,79.555,0,0,1,28.621-32.251,78.532,78.532,0,0,1,83.427-.873,79.657,79.657,0,0,1,28.507,30.171,73.117,73.117,0,0,1,20.26-10.831,71.434,71.434,0,0,1,38.785-2.167,79.614,79.614,0,0,1,28.259-37.881,77.654,77.654,0,0,1,91.381.025A79.622,79.622,0,0,1,1038.462,52.8a58.621,58.621,0,0,1,13.674-5.772,55.613,55.613,0,0,1,32.9.981,60.561,60.561,0,0,1,16.13,8.463,75.51,75.51,0,0,1,23.8,29.995,32.493,32.493,0,0,1,10.513-6.917,34.618,34.618,0,0,1,23.68-.866,33.085,33.085,0,0,1,9.177,4.661,52.411,52.411,0,0,1,8.395-7.987,54.806,54.806,0,0,1,10.136-6.1,56.514,56.514,0,0,1,11.535-3.89,58.713,58.713,0,0,1,24.654-.116,56.663,56.663,0,0,1,11.106,3.57,54.97,54.97,0,0,1,9.854,5.613,52.826,52.826,0,0,1,8.3,7.379,51.842,51.842,0,0,1,8.073-7.379,53.081,53.081,0,0,1,9.58-5.613,54.013,54.013,0,0,1,10.8-3.57A55.318,55.318,0,0,1,1292.5,64a54.449,54.449,0,0,1,20.394,3.911,52.557,52.557,0,0,1,16.666,10.672,49.294,49.294,0,0,1,15.713-10.672A49.25,49.25,0,0,1,1380.6,66.7a66,66,0,0,1,7.6-19.394A62.217,62.217,0,0,1,1401,31.876a57.164,57.164,0,0,1,16.826-10.195,54.427,54.427,0,0,1,39.347,0,57.166,57.166,0,0,1,16.822,10.187,62.208,62.208,0,0,1,12.8,15.421,65.99,65.99,0,0,1,7.6,19.382,33.519,33.519,0,0,1,25.177-.418,36.109,36.109,0,0,1,10.439,6.256,40.739,40.739,0,0,1,8.15,9.52,44.81,44.81,0,0,1,5.208,12.042c.707-.045,1.424-.068,2.13-.068a34.221,34.221,0,0,1,19.8,6.4A44.114,44.114,0,0,1,1598,86a44.739,44.739,0,0,1,9.8,1.084,44.121,44.121,0,0,1,9.031,3.092,63.461,63.461,0,0,1,8.972-18.094A64.568,64.568,0,0,1,1678.5,45a65.142,65.142,0,0,1,17.052,2.26A64.558,64.558,0,0,1,1734,76.371,48.6,48.6,0,0,1,1766.5,64a49.1,49.1,0,0,1,12.849,1.7,48.517,48.517,0,0,1,11.552,4.806,55.769,55.769,0,0,1,8.338-14.32A56.593,56.593,0,0,1,1843.5,35a57.173,57.173,0,0,1,14.233,1.792,56.509,56.509,0,0,1,12.9,5.074,65.655,65.655,0,0,1,35.948-22.185A66.825,66.825,0,0,1,1921.5,18a65.644,65.644,0,0,1,53.341,27.057,64.319,64.319,0,0,1,6.176,10.472,63.182,63.182,0,0,1,5.919,24.094,65.69,65.69,0,0,1,12.14,9.527,64.979,64.979,0,0,1,9.539,12.065,63.435,63.435,0,0,1,9.29,29.784H1476.855c-.335-.537-.654-1.075-.95-1.6-.579.547-1.172,1.085-1.76,1.6Z" transform="translate(-8.69 21)"/>
	</symbol>
	<symbol id="student-with-graduation-cap" xmlns="http://www.w3.org/2000/svg" viewBox="0 0 14.255 17">
	    <g  transform="translate(-37.452)">
            <g id="Layer_2_9_" transform="translate(37.452)">
		        <g id="Сгруппировать_69" data-name="Сгруппировать 69">
		            <path id="Контур_43" data-name="Контур 43" d="M86.314,2.941c.164.092,1.269.626,1.8.883,0,.207.007.565.014.571.059.513.16,1.083.189,1.244-.049.027-.3.19-.3.7v.008c0,.013,0,.027,0,.04.107,1.41.668.8.784,1.42a3.068,3.068,0,0,0,1.667,2.026,2.356,2.356,0,0,0,2.035,0A3.068,3.068,0,0,0,94.174,7.8c.116-.618.676-.01.784-1.42,0-.014,0-.027,0-.04V6.336c0-.507-.249-.67-.3-.7.029-.161.13-.731.189-1.244.007-.006.012-.364.014-.571.293-.141.758-.366,1.145-.555V4.632a.351.351,0,0,0-.036.594s-.156.874-.206,1.131.887.205.845,0-.206-1.131-.206-1.131a.351.351,0,0,0-.035-.594V3.091c.144-.072.252-.126.295-.15.116-.065.179-.149.165-.236.016-.091-.05-.188-.225-.274C95.351,1.817,92.153.253,91.837.1a.646.646,0,0,0-.7,0c-.316.151-3.513,1.715-4.768,2.329-.176.086-.241.183-.225.274C86.135,2.792,86.2,2.875,86.314,2.941Z" transform="translate(-84.362)" fill="#fff"/>
		            <path id="Контур_44" data-name="Контур 44" d="M48.836,295.58a15.72,15.72,0,0,1-1.793-.921.308.308,0,0,0-.434.135c-.486.814-1.388,3.183-2.018,3.226l-.012,0-.012,0c-.629-.044-1.531-2.412-2.018-3.226a.308.308,0,0,0-.434-.135,15.719,15.719,0,0,1-1.793.921c-1.98.714-2.871,1.442-2.871,1.939v3.3H51.707v-3.3C51.707,297.022,50.816,296.294,48.836,295.58Z" transform="translate(-37.452 -283.821)" fill="#fff"/>
		        </g>
	        </g>
	    </g>
	</symbol>
	
  <symbol id="user1" xmlns="http://www.w3.org/2000/svg" viewBox="0 0 11.566 11.566">
      <g id="Сгруппировать_65" data-name="Сгруппировать 65" transform="translate(0 7.436)">
        <g id="Сгруппировать_64" data-name="Сгруппировать 64" transform="translate(0)">
          <path id="Контур_41" data-name="Контур 41" d="M9.325,307.807l-1.759-.586a.413.413,0,0,0-.131-.022h-3.3a.412.412,0,0,0-.131.022l-1.759.586A3.274,3.274,0,0,0,0,310.917a.413.413,0,0,0,.413.413h10.74a.413.413,0,0,0,.413-.413A3.274,3.274,0,0,0,9.325,307.807Z" transform="translate(0 -307.199)" fill="#fff"/>
        </g>
      </g>
      <g id="Сгруппировать_67" data-name="Сгруппировать 67" transform="translate(3.305)">
        <g id="Сгруппировать_66" data-name="Сгруппировать 66">
          <path id="Контур_42" data-name="Контур 42" d="M139.012,0a2.479,2.479,0,0,0-2.479,2.479V4.131a2.479,2.479,0,0,0,4.957,0V2.479A2.479,2.479,0,0,0,139.012,0Z" transform="translate(-136.533)" fill="#fff"/>
        </g>
      </g>
  </symbol>
	<symbol id="project-manager" xmlns="http://www.w3.org/2000/svg" viewBox="0 0 101.287 93.572">
	    <path d="M83.287,23.714H0v4.88H2.6V81.051H39.2V87.2a6.29,6.29,0,1,0,4.88,0V81.051H80.689V28.594h2.6ZM60.245,35.3v4.88h-48.7V35.3ZM44.788,69.464H11.545v-4.88H44.788Zm0-9.761H11.545v-4.88H44.788Zm0-9.761H11.545v-4.88H44.788ZM70.821,69.464H48.855v-24.4H70.821Z">
	</symbol>
	<symbol id="developer" xmlns="http://www.w3.org/2000/svg"  width="101.559" height="93.073" viewBox="0 0 101.559 93.073">
  <defs>
    <filter id="Контур_17708" x="0" y="0" width="101.559" height="62.064" filterUnits="userSpaceOnUse">
      <feOffset dy="3" input="SourceAlpha"/>
      <feGaussianBlur stdDeviation="3" result="blur"/>
      <feFlood flood-opacity="0.4"/>
      <feComposite operator="in" in2="blur"/>
      <feComposite in="SourceGraphic"/>
    </filter>
    <filter id="Контур_17709" x="0" y="48.961" width="101.559" height="29.424" filterUnits="userSpaceOnUse">
      <feOffset dy="3" input="SourceAlpha"/>
      <feGaussianBlur stdDeviation="3" result="blur-2"/>
      <feFlood flood-opacity="0.4"/>
      <feComposite operator="in" in2="blur-2"/>
      <feComposite in="SourceGraphic"/>
    </filter>
    <filter id="Контур_17710" x="27.092" y="65.281" width="47.376" height="27.792" filterUnits="userSpaceOnUse">
      <feOffset dy="3" input="SourceAlpha"/>
      <feGaussianBlur stdDeviation="3" result="blur-3"/>
      <feFlood flood-opacity="0.4"/>
      <feComposite operator="in" in2="blur-3"/>
      <feComposite in="SourceGraphic"/>
    </filter>
  </defs>
  <g id="Сгруппировать_886" data-name="Сгруппировать 886" transform="translate(-1206.021 -1813)">
    <g transform="matrix(1, 0, 0, 1, 1206.02, 1813)" filter="url(#Контур_17708)">
      <path id="Контур_17708-2" data-name="Контур 17708" d="M81.111,26H2.448A2.448,2.448,0,0,0,0,28.448V70.064H83.559V28.448A2.448,2.448,0,0,0,81.111,26ZM28.8,60.195A2.447,2.447,0,0,1,25.45,59.3L19.516,49.058a2.448,2.448,0,0,1,.022-2.491l5.934-9.843a2.448,2.448,0,1,1,4.193,2.528l-5.187,8.6,5.209,8.993a2.448,2.448,0,0,1-.891,3.345ZM48.473,37.827,39.635,60.046a2.448,2.448,0,0,1-4.549-1.809l8.837-22.219a2.448,2.448,0,1,1,4.549,1.81Zm15.57,11.231L58.108,59.3a2.448,2.448,0,1,1-4.237-2.454l5.209-8.993-5.187-8.6a2.448,2.448,0,0,1,4.193-2.528l5.934,9.843A2.448,2.448,0,0,1,64.043,49.058Z" transform="translate(9 -20)" fill="#fff"/>
    </g>
    <g transform="matrix(1, 0, 0, 1, 1206.02, 1813)" filter="url(#Контур_17709)">
      <path id="Контур_17709-2" data-name="Контур 17709" d="M0,334.976a2.448,2.448,0,0,0,2.448,2.448H81.111a2.448,2.448,0,0,0,2.448-2.448V326H0Z" transform="translate(9 -271.04)" fill="#fff"/>
    </g>
    <g transform="matrix(1, 0, 0, 1, 1206.02, 1813)" filter="url(#Контур_17710)">
      <path id="Контур_17710-2" data-name="Контур 17710" d="M192.928,430.9H190.48V426H170.9v4.9h-2.448a2.448,2.448,0,1,0,0,4.9h24.48a2.448,2.448,0,0,0,0-4.9Z" transform="translate(-129.91 -354.72)" fill="#fff"/>
    </g>
  </g>
</symbol>
    <symbol id="design" xmlns="http://www.w3.org/2000/svg" viewBox="0 0 99.745 93.073">

    <path id="Контур_17703" data-name="Контур 17703" d="M168.248,211.106c-4.324,0-6.765,3.874-7.2,7.474a28.486,28.486,0,0,1-1.878,6.9h9.08a7.185,7.185,0,0,0,0-14.369Z"/>
    <path id="Контур_17705" data-name="Контур 17705" d="M260.755,127.48l12.5-12.5a2.395,2.395,0,1,0-3.387-3.387l-12.5,12.5a12.067,12.067,0,0,1,3.387,3.387Z"/>

    <g>
      
        <path id="Контур_17704-2" data-name="Контур 17704" d="M79.35,20.894H2.395A2.4,2.4,0,0,0,0,23.289V65.632H20.192a26.58,26.58,0,0,0,2.343-7.474,14.3,14.3,0,0,1,3.687-8.121,11.32,11.32,0,0,1,8.269-3.565,12.03,12.03,0,0,1,1.692.122L50.2,32.578a7.184,7.184,0,1,1,10.16,10.16L46.345,56.755a12.045,12.045,0,0,1,.122,1.692,11.913,11.913,0,0,1-2.4,7.185h37.68V23.289a2.4,2.4,0,0,0-2.395-2.395Z" transform="translate(9 -14.89)" fill="#fff"/>
      
      
        <path id="Контур_17706-2" data-name="Контур 17706" d="M0,339.887a2.4,2.4,0,0,0,2.395,2.395H79.35a2.4,2.4,0,0,0,2.395-2.395v-8.781H0Z" transform="translate(9 -275.58)" fill="#fff"/>
      
      
        <path id="Контур_17707-2" data-name="Контур 17707" d="M192.343,435.9h-2.395v-4.79H170.79v4.79h-2.395a2.395,2.395,0,1,0,0,4.79h23.949a2.395,2.395,0,1,0,0-4.79Z" transform="translate(-130.5 -359.61)" fill="#fff"/>
      
    </g>
  
</symbol>

</svg>
