
<svg  xmlns="http://www.w3.org/2000/svg" xmlns:xlink="http://www.w3.org/1999/xlink" viewBox="0 0 915.6 430.6">
<style type="text/css"> .st0{fill:#FFCB31;} .st2{fill:#4D555B;}</style>
    <path class="st0" d="M269.9,115.8c1.6-6.8,3.1-13.6,4.3-20.6s2.4-14,3-21.3c-5.1,5.1-9.8,10.5-14.4,16s-8.9,11-13,16.6
	c-1.1,1.5-2.2,3.1-3.4,4.6c7.7,2.6,15,6.1,22,10.3C269,119.5,269.5,117.6,269.9,115.8"/>
    <path class="st0" d="M145.6,330.1c-1.6,6.8-3.1,13.6-4.3,20.6s-2.4,14-3,21.3c5.1-5.1,9.8-10.5,14.4-16s8.8-11,13-16.6
	c1.1-1.5,2.2-3.1,3.4-4.6c-7.6-2.6-15-6-21.9-10.2C146.6,326.4,146.1,328.3,145.6,330.1"/>
    <path class="st0" d="M268.5,121.4c-1.2,5-2.5,9.8-3.9,14.7c-1.9,6.7-3.9,13.3-6,19.8c-8.6,26.1-18.8,51.6-30.5,76.5
	c-11.6,24.9-24.6,49.1-39.1,72.4c-3.6,5.9-7.4,11.7-11.3,17.4c-2.8,4.2-5.8,8.3-8.7,12.4c61.7,21.5,129.1-11.1,150.6-72.8
	C338,208.8,316.7,150.1,268.5,121.4"/>
    <path class="st0" d="M157,290c17.3-52.2,40.6-102.3,69.4-149.1c3.6-5.8,7.4-11.7,11.3-17.3c2.8-4.2,5.8-8.3,8.8-12.4
	c-12.5-4.4-25.6-6.6-38.8-6.6c-65.4-0.1-118.4,52.9-118.5,118.3c0,41.7,21.9,80.4,57.7,101.7c1.2-5,2.6-9.8,3.9-14.7
	C152.8,303.2,154.9,296.6,157,290"/>
    <path class="st1" d="M378.4,161.2h21.3v19.6h-21.3V161.2z M378.4,191h21.3v88.9h-21.3V191z"/>
    <path class="st1" d="M416.9,191.1h19.6v8.1h0.4c2.9-3.7,9.9-11.1,24.4-11.1c20.5,0,34.7,14.8,34.7,39.9v52h-21.4v-47.2
	c0-19.9-9.5-24.4-17.8-24.4c-17.4,0-18.4,16.6-18.4,24.4V280H417v-88.9H416.9z"/>
    <polygon class="st1" points="516.4,210 506,210 506,191.1 516.4,191.1 516.4,161.2 537.8,161.2 537.8,191.1 550.6,191.1 550.6,210
	537.8,210 537.8,280 516.4,280 "/>
    <path class="st1" d="M580.4,245c2.8,10.9,11.9,17.6,23.3,17.6c6.9,0,14.6-1.9,19.9-8.3h24.1c-11.9,28.3-39,28.6-43.2,28.6
	c-32,0-47-26.3-47-46.8s15.2-48,47.4-48c27.1,0,45.8,20.9,45.8,47.4c0.1,3.2-0.1,6.3-0.5,9.5H580.4z M628.3,226
	c-3-11.2-12.5-17.6-23.5-17.6c-11.2-0.2-21.2,7-24.7,17.6H628.3z"/>
    <path class="st1" d="M664.1,191.1h19.6v8.1h0.3c4-7.5,12.1-11.8,20.5-10.9V209c-19.4-0.2-19.1,18.3-19.1,23.1v48h-21.3V191.1z"/>
    <path class="st1" d="M715.5,191.1H735v8.1h0.3c4-7.5,12.1-11.8,20.6-10.9V209c-19.4-0.2-19.1,18.3-19.1,23.1v48h-21.4V191.1z"/>
    <path class="st1" d="M855.5,280h-19.6v-12h-0.3c-6.9,9.5-17.9,15.1-29.7,15c-22.7,0-43.5-17.8-43.5-46.6c0-28,19.6-48.2,44.2-48.2
	c12.7,0,22.7,5.3,29,15.4h0.4v-12.5h19.5V280z M783.8,236.3c0,15.1,10.6,26.3,26.2,26.3c15.2,0,25.5-11.1,25.5-27.3
	c0-15.4-10.1-27-25.5-27S783.8,220.3,783.8,236.3"/>
    <polygon class="st2" points="382.3,314.7 382.3,334.1 389.1,334.1 389.1,314.7 393,314.7 393,334.1 399.8,334.1 399.8,314.7
	403.7,314.7 403.7,337.2 378.4,337.2 378.4,314.7 "/>
    <polygon class="st2" points="415,327.5 412.4,327.5 412.4,337.2 408.5,337.2 408.5,314.7 412.4,314.7 412.4,324.2 414.5,324.2
	421,314.7 425.9,314.7 418.1,325.5 426.5,337.2 421.8,337.2 "/>
    <path class="st2" d="M446.2,326.6c0.1,2-0.3,4-1.1,5.8c-0.7,1.6-1.8,2.9-3.3,3.8c-3,1.8-6.7,1.8-9.7,0c-1.5-0.9-2.6-2.2-3.3-3.8
	c-0.8-1.8-1.2-3.7-1.1-5.7v-1.2c-0.1-2,0.3-4,1.1-5.9c0.7-1.6,1.8-2.9,3.3-3.8c3-1.8,6.7-1.8,9.7,0c1.4,0.9,2.6,2.2,3.3,3.8
	c0.8,1.8,1.2,3.8,1.1,5.8V326.6z M442.3,325.4c0.1-2-0.4-4-1.4-5.8c-0.9-1.3-2.4-2-4-2c-1.6,0-3.1,0.7-4,1.9
	c-1.1,1.7-1.6,3.6-1.4,5.6v1.3c-0.1,2,0.4,4,1.4,5.8c0.9,1.3,2.4,2.1,4,2c1.6,0.1,3.1-0.6,4-1.9c1-1.7,1.5-3.7,1.4-5.8V325.4z"/>
    <path class="st2" d="M467.3,314.7v22.5h-3.9v-19.3h-6.9l-0.4,8.7c-0.1,2.1-0.4,4.2-1,6.3c-0.7,2.8-3.3,4.6-6.1,4.3h-1v-3.1l0.6-0.1
	c0.8,0,1.5-0.4,2-1c0.6-0.7,1-1.6,1.1-2.5c0.3-1.6,0.5-3.2,0.5-4.9l0.4-11L467.3,314.7z"/>
    <path class="st2" d="M484.8,332h-8.7l-1.9,5.2h-4.1l8.5-22.5h3.5l8.5,22.5h-4.1L484.8,332z M477.2,328.8h6.5l-3.3-9.3L477.2,328.8z"
    />
    <path class="st2" d="M518.3,329.9c-0.1,2.1-1.1,4.1-2.7,5.6c-1.7,1.4-4,2.1-6.2,2c-1.7,0-3.3-0.4-4.7-1.2c-1.4-0.9-2.5-2.2-3.2-3.6
	c-0.8-1.7-1.2-3.6-1.1-5.5V325c-0.1-1.9,0.3-3.8,1.1-5.6c0.7-1.5,1.8-2.8,3.2-3.7c3.4-2,7.7-1.7,10.9,0.7c1.6,1.5,2.5,3.5,2.7,5.7
	h-3.9c0-1.3-0.5-2.5-1.4-3.5c-0.9-0.8-2.2-1.1-3.4-1.1c-1.5-0.1-3,0.6-3.9,1.9c-1,1.6-1.5,3.6-1.4,5.5v2c-0.1,2,0.3,3.9,1.3,5.6
	c0.8,1.3,2.3,2,3.8,2c1.2,0.1,2.5-0.3,3.5-1.1c0.9-0.9,1.4-2.2,1.5-3.5L518.3,329.9z"/>
    <path class="st2" d="M539.7,326.6c0.1,2-0.3,4-1.2,5.8c-0.7,1.6-1.8,2.9-3.3,3.8c-3,1.8-6.7,1.8-9.7,0c-1.5-0.9-2.6-2.2-3.3-3.8
	c-0.8-1.8-1.2-3.7-1.2-5.7v-1.2c-0.1-2,0.3-4,1.2-5.9c0.7-1.6,1.8-2.9,3.3-3.8c3-1.8,6.7-1.8,9.7,0c1.4,0.9,2.6,2.2,3.3,3.8
	c0.8,1.8,1.2,3.8,1.2,5.8V326.6z M535.8,325.4c0.1-2-0.4-4-1.4-5.8c-0.9-1.3-2.4-2-4-2c-1.6,0-3.1,0.7-4,1.9c-1,1.7-1.5,3.6-1.4,5.6
	v1.3c-0.1,2,0.4,4,1.4,5.8c0.9,1.3,2.4,2.1,4,2c1.6,0.1,3.1-0.6,4-1.9c1.1-1.7,1.5-3.7,1.4-5.8L535.8,325.4z"/>
    <path class="st2" d="M543.6,337.2v-22.5h7.7c2.1-0.1,4.1,0.4,5.8,1.5c1.3,1.1,2.1,2.8,1.9,4.5c0,1-0.3,1.9-0.8,2.7
	c-0.6,0.9-1.5,1.6-2.5,2c1.1,0.3,2.1,0.9,2.8,1.9c0.7,1,1,2.1,1,3.3c0.1,1.8-0.6,3.6-2,4.9c-1.3,1.1-3.3,1.7-5.8,1.7L543.6,337.2
	L543.6,337.2z M547.5,324.2h3.8c1,0.1,2-0.2,2.8-0.8c1.3-1.2,1.4-3.2,0.3-4.5c-0.1-0.1-0.1-0.1-0.2-0.2c-0.9-0.6-1.9-0.8-2.9-0.7
	h-3.8L547.5,324.2L547.5,324.2z M547.5,327.1v7h4.3c1,0.1,2-0.2,2.8-0.9c0.7-0.6,1.1-1.5,1.1-2.5c0.2-1.7-1-3.3-2.8-3.5
	c-0.3,0-0.5,0-0.8,0L547.5,327.1L547.5,327.1z"/>
    <path class="st2" d="M567.5,328.9v8.3h-3.9v-22.5h8.6c2.2-0.1,4.3,0.6,6,2c1.5,1.3,2.3,3.2,2.2,5.2c0.1,1.9-0.7,3.8-2.1,5.1
	c-1.7,1.3-3.9,2-6.1,1.9H567.5z M567.5,325.7h4.7c1.1,0.1,2.3-0.3,3.2-1c0.8-0.7,1.1-1.8,1.1-2.8c0.1-1.1-0.3-2.2-1.2-2.9
	c-0.9-0.7-2-1.2-3.1-1.1h-4.8L567.5,325.7L567.5,325.7z"/>
    <polygon class="st2" points="596.9,327.2 587.7,327.2 587.7,334.1 598.5,334.1 598.5,337.2 583.8,337.2 583.8,314.7 598.4,314.7
	598.4,317.9 587.7,317.9 587.7,324.1 596.9,324.1 "/>
    <polygon class="st2" points="606.7,314.7 613.2,332 619.7,314.7 624.7,314.7 624.7,337.2 620.8,337.2 620.8,329.7 621.3,319.9
	614.6,337.2 611.8,337.2 605.1,319.9 605.6,329.7 605.6,337.2 601.7,337.2 601.7,314.7 "/>
    <polygon class="st2" points="642.5,327.2 633.2,327.2 633.2,334.1 644,334.1 644,337.2 629.3,337.2 629.3,314.7 643.9,314.7
	643.9,317.9 633.2,317.9 633.2,324.1 642.5,324.1 "/>
    <polygon class="st2" points="665.1,337.2 661.2,337.2 661.2,327.3 651.1,327.3 651.1,337.2 647.2,337.2 647.2,314.7 651.1,314.7
	651.1,324.1 661.2,324.1 661.2,314.7 665.1,314.7 "/>
    <polygon class="st2" points="687.6,337.2 683.7,337.2 683.7,327.3 673.6,327.3 673.6,337.2 669.7,337.2 669.7,314.7 673.6,314.7
	673.6,324.1 683.7,324.1 683.7,314.7 687.6,314.7 "/>
    <path class="st2" d="M696.2,323.3h4.6c1.5,0,3,0.3,4.3,0.9c1.2,0.5,2.1,1.3,2.8,2.4c0.7,1.1,1,2.4,1,3.6c0.1,1.9-0.7,3.8-2.1,5
	c-1.6,1.3-3.7,2-5.8,1.9h-8.6v-22.5h3.9v8.6H696.2z M696.2,326.5v7.6h4.6c1.1,0.1,2.2-0.3,3.1-1.1c0.7-0.8,1.1-1.8,1.1-2.8
	c0.1-1-0.3-2-1.1-2.7c-0.8-0.7-1.9-1-3-1L696.2,326.5L696.2,326.5z M715,337.2h-3.9v-22.5h3.9V337.2z"/>
    <polygon class="st2" points="727.4,322.8 732.2,314.7 736.6,314.7 729.9,325.8 736.8,337.2 732.3,337.2 727.4,328.9 722.6,337.2
	718,337.2 725,325.8 718.2,314.7 722.7,314.7 "/>
    <polygon class="st2" points="396.1,375.2 392.2,375.2 392.2,355.8 382.3,355.8 382.3,375.2 378.4,375.2 378.4,352.7 396.1,352.7 "/>
    <path class="st2" d="M404.7,366.8v8.3h-3.9v-22.4h8.6c2.2-0.1,4.3,0.6,6,2c1.5,1.3,2.3,3.2,2.2,5.2c0.1,1.9-0.7,3.8-2.1,5.1
	c-1.7,1.3-3.9,2-6.1,1.9L404.7,366.8L404.7,366.8z M404.7,363.7h4.7c1.1,0.1,2.3-0.3,3.2-1c0.8-0.7,1.1-1.8,1.1-2.8
	c0.1-1.1-0.3-2.2-1.1-2.9c-0.9-0.7-2-1.2-3.1-1.1h-4.8L404.7,363.7L404.7,363.7z"/>
    <path class="st2" d="M438.9,364.5c0.1,2-0.3,4-1.1,5.8c-0.7,1.6-1.8,2.9-3.3,3.8c-3,1.8-6.7,1.8-9.7,0c-1.5-0.9-2.6-2.2-3.3-3.8
	c-0.8-1.8-1.2-3.7-1.1-5.7v-1.2c-0.1-2,0.3-4,1.1-5.8c0.7-1.6,1.8-2.9,3.3-3.8c3-1.8,6.7-1.8,9.7,0c1.4,0.9,2.6,2.2,3.3,3.8
	c0.8,1.8,1.2,3.8,1.1,5.8V364.5z M435,363.3c0.1-2-0.4-4-1.4-5.8c-1.7-2.2-4.9-2.6-7.1-0.9c-0.3,0.3-0.6,0.6-0.9,0.9
	c-1,1.7-1.5,3.6-1.4,5.6v1.3c-0.1,2,0.4,4,1.4,5.8c0.9,1.3,2.4,2,4,2c1.6,0.1,3.1-0.6,4-1.9c1.1-1.7,1.6-3.7,1.4-5.8V363.3z"/>
    <path class="st2" d="M455,354.8c1.7-0.1,3.5,0.3,5,1.1c1.4,0.8,2.6,1.9,3.4,3.3c0.8,1.5,1.2,3.1,1.1,4.8c0,1.6-0.3,3.3-1.1,4.7
	c-0.8,1.4-1.9,2.5-3.3,3.3c-1.6,0.8-3.3,1.2-5,1.1v2.9h-3.7v-2.9H451c-1.7,0-3.3-0.4-4.8-1.1c-1.4-0.8-2.5-1.9-3.3-3.2
	c-0.8-1.4-1.2-3.1-1.1-4.7c0-1.7,0.4-3.3,1.1-4.8c0.8-1.4,1.9-2.5,3.3-3.3c1.5-0.8,3.3-1.2,5-1.1v-3.1h3.8V354.8z M451,357.9
	c-1.5-0.1-3.1,0.5-4.2,1.6c-1.1,1.3-1.6,2.9-1.5,4.5c-0.1,1.6,0.4,3.1,1.4,4.3c1.1,1.1,2.5,1.7,4.1,1.6h0.4v-12L451,357.9z
	 M455,357.9v12h0.3c1.5,0.1,3-0.5,4.1-1.6c2-2.6,2-6.3,0-8.9c-1.1-1.1-2.6-1.7-4.2-1.6L455,357.9z"/>
    <polygon class="st2" points="481.2,365.1 471.9,365.1 471.9,372 482.7,372 482.7,375.2 468,375.2 468,352.7 482.6,352.7
	482.6,355.8 471.9,355.8 471.9,362 481.2,362 "/>
    <path class="st2" d="M503,367.8c-0.1,2.1-1.1,4.1-2.7,5.6c-1.8,1.4-4,2.1-6.2,2c-1.6,0-3.3-0.4-4.7-1.2c-1.4-0.9-2.5-2.2-3.2-3.6
	c-0.8-1.7-1.2-3.6-1.1-5.5v-2.1c-0.1-1.9,0.3-3.8,1.1-5.6c0.7-1.5,1.8-2.8,3.2-3.7c3.4-2,7.7-1.7,10.9,0.7c1.6,1.5,2.5,3.5,2.7,5.7
	h-3.9c0-1.3-0.5-2.6-1.4-3.5c-0.9-0.8-2.2-1.1-3.4-1.1c-1.5-0.1-3,0.6-3.9,1.9c-1,1.6-1.5,3.6-1.4,5.5v2c-0.1,1.9,0.3,3.9,1.3,5.6
	c0.8,1.3,2.3,2,3.8,2c1.2,0.1,2.5-0.3,3.5-1.1c0.9-0.9,1.4-2.2,1.5-3.5L503,367.8z"/>
    <path class="st2" d="M523.7,367.8c-0.1,2.1-1.1,4.1-2.7,5.6c-1.8,1.4-4,2.1-6.2,2c-3.4,0.1-6.5-1.8-7.9-4.9
	c-0.8-1.7-1.2-3.6-1.2-5.5v-2.1c-0.1-1.9,0.3-3.8,1.2-5.6c2.4-4.6,8.1-6.4,12.7-4c0.5,0.3,1,0.6,1.5,1c1.6,1.5,2.5,3.5,2.7,5.7h-3.9
	c0-1.3-0.5-2.6-1.4-3.5c-0.9-0.8-2.2-1.1-3.4-1.1c-1.5-0.1-3,0.6-3.9,1.9c-1,1.6-1.5,3.6-1.4,5.5v2c-0.1,1.9,0.3,3.9,1.3,5.6
	c0.8,1.3,2.3,2,3.8,2c1.2,0.1,2.5-0.3,3.5-1.1c0.9-0.9,1.4-2.2,1.5-3.5L523.7,367.8z"/>
    <polygon class="st2" points="540.9,352.7 544.8,352.7 544.8,375.2 540.9,375.2 540.9,359.1 531,375.2 527.1,375.2 527.1,352.7
	531,352.7 531,368.7 "/>
    <path class="st2" d="M563.3,352.7h3.9v22.5h-3.9v-16l-9.8,16h-3.9v-22.5h3.9v16L563.3,352.7z M563.4,346.9c0,1.2-0.4,2.4-1.3,3.2
	c-1,0.9-2.3,1.3-3.6,1.2c-1.3,0.1-2.6-0.4-3.6-1.2c-0.9-0.8-1.4-2-1.3-3.2h2.8c0,0.6,0.2,1.2,0.6,1.6c0.4,0.4,1,0.6,1.6,0.5
	c1,0.1,2-0.6,2.1-1.6c0-0.2,0-0.4,0-0.5H563.4z"/>
</svg>
